<?xml version="1.0" standalone="no"?>
<!DOCTYPE svg PUBLIC "-//W3C//DTD SVG 20010904//EN"
 "http://www.w3.org/TR/2001/REC-SVG-20010904/DTD/svg10.dtd">
<svg version="1.0" xmlns="http://www.w3.org/2000/svg"
 width="200.000000pt" height="200.000000pt" viewBox="0 0 200.000000 200.000000"
 preserveAspectRatio="xMidYMid meet">
<metadata>
Created by potrace 1.11, written by Peter Selinger 2001-2013
</metadata>
<g transform="translate(0.000000,200.000000) scale(0.100000,-0.100000)"
fill="#000000" stroke="none">
<path d="M500 1528 c0 -2 -85 -223 -189 -492 l-187 -490 -50 -16 c-41 -14 -50
-21 -52 -43 l-3 -27 170 0 171 0 0 25 c0 21 -7 26 -57 40 -32 9 -61 17 -64 18
-4 1 14 59 40 129 l46 128 177 0 177 0 19 -52 c11 -29 32 -84 46 -122 14 -37
26 -72 26 -75 0 -4 -25 -15 -55 -25 -47 -14 -55 -21 -55 -42 l0 -24 195 0 195
0 0 25 c0 27 -24 42 -87 52 -19 3 -33 12 -36 24 -3 10 -87 232 -187 493 -182
475 -183 476 -211 476 -16 0 -29 -1 -29 -2z m20 -263 c0 -19 35 -122 99 -292
l30 -83 -144 0 -144 0 39 108 c22 59 54 153 72 209 30 93 47 114 48 58z"/>
<path d="M1070 1410 l0 -100 45 0 45 0 0 -325 0 -325 -45 0 -45 0 0 -100 0
-100 425 0 425 0 0 200 0 200 -130 0 -130 0 0 -100 0 -100 -90 0 -90 0 0 325
0 325 40 0 40 0 0 100 0 100 -245 0 -245 0 0 -100z"/>
</g>
</svg>
